<svg width="264" height="267" viewBox="0 0 264 267" fill="none" xmlns="http://www.w3.org/2000/svg">
<path d="M51.9025 256.32C29.0929 256.32 10.5601 237.577 10.5601 214.508V52.4921C10.5601 29.4233 29.0929 10.6799 51.9025 10.6799H212.098C234.907 10.6799 253.44 29.4233 253.44 52.4921V214.508C253.44 237.55 234.907 256.32 212.098 256.32H51.9025Z" fill="white"/>
<path d="M212.098 13.35C233.482 13.35 250.8 30.8652 250.8 52.4922V214.508C250.8 236.135 233.482 253.65 212.098 253.65H51.9023C30.5183 253.65 13.1999 236.135 13.1999 214.508V52.4922C13.1999 30.8652 30.5183 13.35 51.9023 13.35H212.098ZM212.098 8.01001H51.9023C45.9623 8.01001 40.2071 9.18481 34.7687 11.5077C29.5415 13.7505 24.8159 16.9545 20.8031 21.0396C16.7903 25.1247 13.5959 29.8773 11.3783 35.1639C9.08152 40.6641 7.91992 46.4847 7.91992 52.4922V214.508C7.91992 220.515 9.08152 226.336 11.3783 231.836C13.5959 237.123 16.7639 241.902 20.8031 245.96C24.8423 250.046 29.5415 253.25 34.7687 255.492C40.2071 257.815 45.9623 258.99 51.9023 258.99H212.098C218.038 258.99 223.793 257.815 229.231 255.492C234.458 253.25 239.184 250.046 243.197 245.96C247.236 241.875 250.404 237.123 252.622 231.836C254.918 226.336 256.08 220.515 256.08 214.508V52.4922C256.08 46.4847 254.918 40.6641 252.622 35.1639C250.404 29.8773 247.236 25.098 243.197 21.0396C239.158 16.9545 234.458 13.7505 229.231 11.5077C223.793 9.18481 218.038 8.01001 212.098 8.01001Z" fill="black"/>
<path d="M250.8 53.3999H13.2002V93.4499H250.8V53.3999Z" fill="#3155A4"/>
<path d="M250.8 93.45H13.2002V133.5H250.8V93.45Z" fill="#FFB511"/>
<path d="M250.8 133.5H13.2002V173.55H250.8V133.5Z" fill="#C34342"/>
<path d="M250.8 173.55H13.2002V213.6H250.8V173.55Z" fill="#00AD4A"/>
</svg>
